<svg xmlns="http://www.w3.org/2000/svg" viewBox="0 0 64 64">
  <defs>
    <linearGradient id="calendarGradient" x1="0%" y1="0%" x2="100%" y2="100%">
      <stop offset="0%" stop-color="#1a1a2e"/>
      <stop offset="100%" stop-color="#0f0f1a"/>
    </linearGradient>
    <linearGradient id="headerGradient" x1="0%" y1="0%" x2="100%" y2="100%">
      <stop offset="0%" stop-color="#2a2a42"/>
      <stop offset="100%" stop-color="#1a1a2e"/>
    </linearGradient>
    <linearGradient id="borderGradient" x1="0%" y1="0%" x2="100%" y2="100%">
      <stop offset="0%" stop-color="#ffd700"/>
      <stop offset="50%" stop-color="#ff6b9d"/>
      <stop offset="100%" stop-color="#9d4edd"/>
    </linearGradient>
    <linearGradient id="trendGradient" x1="0%" y1="0%" x2="100%" y2="0%">
      <stop offset="0%" stop-color="#10b981"/>
      <stop offset="50%" stop-color="#ffd700"/>
      <stop offset="100%" stop-color="#ff6b9d"/>
    </linearGradient>
  </defs>

  <!-- Calendar base -->
  <rect x="10" y="14" width="44" height="40" rx="4" fill="url(#calendarGradient)" stroke="url(#borderGradient)" stroke-width="2.5"/>

  <!-- Calendar header bar -->
  <rect x="10" y="14" width="44" height="10" rx="4" fill="url(#headerGradient)"/>
  <rect x="10" y="20" width="44" height="4" fill="url(#headerGradient)"/>

  <!-- Calendar rings/binding -->
  <rect x="18" y="10" width="3" height="8" rx="1.5" fill="url(#borderGradient)"/>
  <rect x="31" y="10" width="3" height="8" rx="1.5" fill="url(#borderGradient)"/>
  <rect x="44" y="10" width="3" height="8" rx="1.5" fill="url(#borderGradient)"/>

  <!-- Trading activity indicators -->
  <circle cx="17" cy="31" r="2.5" fill="#10b981"/>
  <circle cx="23" cy="31" r="2.5" fill="#ffd700"/>
  <circle cx="35" cy="37" r="2.5" fill="#ff6b9d"/>
  <circle cx="41" cy="37" r="2.5" fill="#10b981"/>
  <circle cx="29" cy="43" r="2.5" fill="#9d4edd"/>
  <circle cx="47" cy="43" r="2.5" fill="#ffd700"/>

  <!-- Chart trend line -->
  <path
    d="M 14 48 L 20 44 L 26 46 L 32 38 L 38 40 L 44 35 L 50 32"
    stroke="url(#trendGradient)"
    stroke-width="2.5"
    stroke-linecap="round"
    stroke-linejoin="round"
    fill="none"
    opacity="0.7"
  />

  <!-- Sparkle effects -->
  <circle cx="56" cy="12" r="3" fill="#ffd700"/>
  <circle cx="8" cy="18" r="2" fill="#ff6b9d"/>
  <circle cx="54" cy="52" r="2" fill="#9d4edd"/>
</svg>
